<?xml version="1.0" encoding="UTF-8" standalone="no"?>
<!-- Created with Inkscape (http://www.inkscape.org/) -->

<svg
   xmlns:dc="http://purl.org/dc/elements/1.1/"
   xmlns:cc="http://creativecommons.org/ns#"
   xmlns:rdf="http://www.w3.org/1999/02/22-rdf-syntax-ns#"
   xmlns:svg="http://www.w3.org/2000/svg"
   xmlns="http://www.w3.org/2000/svg"
   xmlns:sodipodi="http://sodipodi.sourceforge.net/DTD/sodipodi-0.dtd"
   xmlns:inkscape="http://www.inkscape.org/namespaces/inkscape"
   width="600mm"
   height="600mm"
   viewBox="0 0 2125.9842 2125.9843"
   id="svg2"
   version="1.1"
   inkscape:version="0.91 r13725"
   sodipodi:docname="rx-twitch.svg"
   inkscape:export-filename="rx-twitch.png"
   inkscape:export-xdpi="15.24"
   inkscape:export-ydpi="15.24">
  <defs
     id="defs4" />
  <sodipodi:namedview
     id="base"
     pagecolor="#ffffff"
     bordercolor="#666666"
     borderopacity="1.0"
     inkscape:pageopacity="0.0"
     inkscape:pageshadow="2"
     inkscape:zoom="0.061871845"
     inkscape:cx="-184.3011"
     inkscape:cy="-215.61439"
     inkscape:document-units="px"
     inkscape:current-layer="layer1"
     showgrid="false"
     fit-margin-top="0"
     fit-margin-left="0"
     fit-margin-right="0"
     fit-margin-bottom="0"
     inkscape:window-width="1855"
     inkscape:window-height="1056"
     inkscape:window-x="65"
     inkscape:window-y="24"
     inkscape:window-maximized="1" />
  <metadata
     id="metadata7">
    <rdf:RDF>
      <cc:Work
         rdf:about="">
        <dc:format>image/svg+xml</dc:format>
        <dc:type
           rdf:resource="http://purl.org/dc/dcmitype/StillImage" />
        <dc:title></dc:title>
      </cc:Work>
    </rdf:RDF>
  </metadata>
  <g
     inkscape:label="Layer 1"
     inkscape:groupmode="layer"
     id="layer1"
     transform="translate(655.04655,509.07071)">
    <g
       id="g8109"
       transform="translate(-92.232117,-56.56853)">
      <g
         style="fill:#6441a5;fill-opacity:1"
         transform="matrix(3.0820194,0,0,3.0820194,1672.4871,-7762.0916)"
         id="g8429">
        <g
           style="fill:#6441a5;fill-opacity:1"
           id="g8373">
          <path
             style="fill:#6441a5;fill-opacity:1"
             d="m -446.5077,3000.8035 c -28.8327,-2.3314 -61.176,-12.3411 -87.5,-27.0798 -18.5071,-10.3621 -34.1117,-22.4703 -49.5266,-38.4297 -19.3608,-20.0448 -27.0435,-32.0808 -43.5267,-68.1903 -1.6154,-3.5389 -6.3012,-10.3696 -10.6328,-15.5 -4.2594,-5.0451 -8.9622,-11.4228 -10.4505,-14.1728 -1.4883,-2.75 -3.151,-5.2961 -3.6948,-5.658 -0.5438,-0.3619 -1.1876,-3.0619 -1.4307,-6 -0.4028,-4.8698 -0.1661,-5.6515 2.6773,-8.842 1.7156,-1.925 4.526,-6.3181 6.2454,-9.7625 2.906,-5.8213 3.0832,-6.7721 2.5163,-13.5 -0.3354,-3.9806 -2.2116,-12.1875 -4.1694,-18.2375 -1.9577,-6.05 -3.8359,-13.7915 -4.1738,-17.2032 -0.5348,-5.4018 -0.2753,-6.8959 2.0087,-11.5642 2.4697,-5.0479 5.0989,-7.8607 22.4726,-24.0415 6.4621,-6.0184 7.7866,-10.3426 8.635,-28.1911 0.7631,-16.0532 2.2786,-21.0734 7.936,-26.2882 5.3652,-4.9454 13.004,-7.8391 24.3076,-9.2081 18.7467,-2.2704 23.2519,-4.81 39.8033,-22.4373 13.4074,-14.2788 17.817,-17.1044 29.307,-18.7791 13.8488,-2.0184 28.0985,1.9794 40.6961,11.4174 l 6,4.4952 15,1.1547 c 23.8461,1.8358 41.7384,6.355 63.5418,16.0494 22.8403,10.1554 43.2892,24.2878 61.5321,42.5255 17.6421,17.6372 26.065,31.6731 27.1848,45.3012 1.6894,20.5592 -13.6457,31.2056 -45.0153,31.2519 -26.8807,0.04 -58.5291,-7.5042 -98.8673,-23.5667 -10.2432,-4.0788 -19.2713,-7.4159 -20.0624,-7.4159 -2.0187,0 -17.1712,5.242 -24.1018,8.338 -21.5323,9.6188 -41.7917,29.2913 -49.6807,48.2416 -5.4984,13.2078 -7.4239,24.6296 -7.4042,43.9204 0.015,15.1428 0.3025,18.0603 2.6264,26.7058 2.9163,10.8491 8.6265,23.7402 14.3899,32.4857 9.206,13.9696 28.8419,31.0118 45.23,39.2557 9.5081,4.783 9.799,2.7961 0.9727,-6.6419 -8.7284,-9.3333 -14.1306,-17.2 -17.4913,-25.4706 -2.5763,-6.3404 -4.452,-14.4041 -3.5584,-15.2977 0.2894,-0.2894 4.8411,3.6567 10.1149,8.7691 26.5141,25.7026 60.2259,44.8489 88.367,50.1872 14.6654,2.7819 53.462,1.1665 57.002,-2.3735 1.3958,-1.3958 -0.052,-1.8118 -8.7802,-2.5228 -9.9778,-0.8128 -17.6863,-3.007 -28,-7.9703 -10.5233,-5.0641 -20.5374,-12.4875 -18.3885,-13.6313 0.7637,-0.4065 4.3135,-1.0452 7.8885,-1.4194 21.4294,-2.2431 47.7127,-12.5355 69.9158,-27.3786 14.7218,-9.8418 30.7526,-24.0104 28.9697,-25.6045 -0.212,-0.1895 -4.1018,1.7978 -8.644,4.4163 -9.2413,5.3275 -21.244,9.4716 -31.7415,10.9592 -8.7102,1.2343 -17.2092,1.3112 -17.9193,0.1621 -0.2956,-0.4782 2.2581,-3.0657 5.6748,-5.75 29.2128,-22.9507 52.4415,-60.4622 60.4676,-97.6481 2.6544,-12.2979 2.4153,-40.5081 -0.4279,-50.4824 -1.1366,-3.9875 -1.6589,-7.25 -1.1607,-7.25 0.4982,0 3.0702,3.3154 5.7155,7.3676 9.4652,14.4992 14.2913,36.2552 12.1315,54.6886 -2.0956,17.8851 -7.1305,32.8325 -16.0536,47.6586 -2.7808,4.6205 -4.8548,8.9373 -4.6089,9.593 0.7505,2.0012 14.9029,-13.2016 21.6973,-23.3078 3.5127,-5.225 8.9911,-14.5486 12.174,-20.719 4.9097,-9.5179 5.8795,-10.851 6.3963,-8.7919 0.9752,3.8855 -0.169,37.7143 -1.3872,41.0109 -0.6097,1.65 -2.5213,7.275 -4.2481,12.5 -5.7352,17.3547 -15.5157,33.6812 -28.9548,48.334 -8.1287,8.8628 -25.0297,21.4571 -35.2651,26.2788 -4.5163,2.1276 -4.3229,3.9868 0.3774,3.629 12.0741,-0.919 41.4433,-15.2921 58.1406,-28.4535 2.0621,-1.6255 4.2433,-2.7908 4.847,-2.5895 1.7901,0.5967 -11.5025,25.482 -18.8562,35.3012 -8.6862,11.5984 -25.5472,29.0563 -35.7402,37.0055 -29.4191,22.9428 -61.0248,35.1676 -99.5,38.4856 -12.8981,1.1123 -16.9651,1.0973 -32,-0.1185 z m 48.25,-291.9241 c 3.7107,-4.0212 3.6505,-8.2018 -0.1731,-12.0254 -3.8313,-3.8314 -8.6955,-3.9564 -13.0002,-0.3342 -5.1693,4.3497 -3.9862,12.2178 2.252,14.976 4.1725,1.8449 7.5515,1.0354 10.9213,-2.6164 z"
             id="path8357"
             inkscape:connector-curvature="0" />
          <path
             style="fill:#6441a5;fill-opacity:1"
             d="m -401.2577,2986.9936 c -6.7375,-5.0127 -12.25,-9.5 -12.25,-9.9718 0,-0.4717 0.9,-1.093 2,-1.3807 1.1,-0.2876 2,-0.9303 2,-1.4281 0,-0.4979 -4.5143,-7.3507 -10.0318,-15.2285 -5.5175,-7.8778 -9.8846,-14.4706 -9.7045,-14.6506 0.18,-0.1801 5.7069,1.0611 12.2818,2.7581 10.2196,2.6376 14.3186,3.1573 28.2449,3.5805 9.9316,0.3019 20.0559,0.021 25.937,-0.7191 16.4018,-2.0645 18.7201,-4.2925 5.5568,-5.3406 -10.6612,-0.8488 -18.184,-2.9541 -28.7842,-8.0552 -10.5233,-5.0641 -20.5374,-12.4875 -18.3885,-13.6313 0.7637,-0.4065 4.3135,-1.0452 7.8885,-1.4194 21.4294,-2.2431 47.7127,-12.5355 69.9158,-27.3786 14.7218,-9.8418 30.7526,-24.0104 28.9697,-25.6045 -0.212,-0.1895 -4.1018,1.7978 -8.644,4.4163 -9.2413,5.3275 -21.244,9.4716 -31.7415,10.9592 -8.7102,1.2343 -17.2092,1.3112 -17.9193,0.1621 -0.2956,-0.4782 2.2581,-3.0657 5.6748,-5.75 29.2128,-22.9507 52.4415,-60.4622 60.4676,-97.6481 2.6544,-12.2979 2.4153,-40.5081 -0.4279,-50.4824 -1.1366,-3.9875 -1.6589,-7.25 -1.1607,-7.25 0.4982,0 3.0702,3.3154 5.7155,7.3676 9.4652,14.4992 14.2913,36.2552 12.1315,54.6886 -2.0956,17.8851 -7.1305,32.8325 -16.0536,47.6586 -2.7808,4.6205 -4.8548,8.9373 -4.6089,9.593 0.7505,2.0012 14.9029,-13.2016 21.6973,-23.3078 3.5127,-5.225 8.9911,-14.5486 12.174,-20.719 4.9097,-9.5179 5.8795,-10.851 6.3963,-8.7919 0.9752,3.8855 -0.169,37.7143 -1.3872,41.0109 -0.6097,1.65 -2.5213,7.275 -4.2481,12.5 -5.7352,17.3547 -15.5157,33.6812 -28.9548,48.334 -8.1287,8.8628 -25.0297,21.4571 -35.2651,26.2788 -4.5163,2.1276 -4.3229,3.9868 0.3774,3.629 12.0741,-0.919 41.4433,-15.2921 58.1406,-28.4535 2.0621,-1.6255 4.2433,-2.7908 4.847,-2.5895 1.7901,0.5967 -11.5025,25.482 -18.8562,35.3012 -13.4265,17.928 -32.9195,36.2654 -50.8308,47.8175 -16.1946,10.4449 -42.0923,21.2081 -53.7933,22.3569 l -5.1161,0.5023 -12.25,-9.114 z m -147.284,-108.8712 c -4.1436,-3.1303 -15.3936,-11.5093 -25,-18.6198 -9.6063,-7.1106 -24.7878,-18.3606 -33.7367,-25 -8.9488,-6.6395 -16.6571,-12.2036 -17.1294,-12.3649 -1.9487,-0.6652 -3.0546,28.072 -1.6062,41.7396 l 0.5885,5.5536 -1.6534,-3 c -0.9093,-1.65 -2.9655,-5.0841 -4.5691,-7.6313 -1.8631,-2.9591 -3.8836,-8.7358 -5.5963,-16 -2.4348,-10.3265 -2.678,-13.1564 -2.6531,-30.8687 0.024,-17.3343 0.3307,-20.9439 2.7582,-32.5 16.4679,-78.3971 75.8199,-135.5355 151.1315,-145.4949 7.4074,-0.9796 12.3622,-0.9048 28,0.4231 10.45,0.8873 23.275,2.5065 28.5,3.5982 26.8569,5.6114 54.9443,18.5749 79.5,36.6924 11.7733,8.6864 31.9002,28.8781 37.8833,38.0051 12.0183,18.3334 13.881,34.7659 5.1034,45.0206 -17.4139,20.3442 -75.3282,14.9779 -143.7616,-13.321 -7.2135,-2.983 -13.8431,-5.4235 -14.7326,-5.4235 -2.1673,0 -17.0768,5.1199 -24.2806,8.338 -21.5323,9.6188 -41.7917,29.2913 -49.6807,48.2416 -5.4929,13.1946 -7.4228,24.6304 -7.4121,43.9204 0.01,17.7212 0.084,18.1708 6.9707,42.25 0.3539,1.2375 0.2535,2.2237 -0.2232,2.1915 -0.4766,-0.032 -4.2569,-2.6196 -8.4006,-5.75 z m 178.8762,-120.6372 c 19.8684,-5.2884 32.7311,-24.9476 29.2108,-44.6455 -2.9219,-16.3504 -14.2585,-28.1848 -31.1428,-32.5103 -19.9639,-5.1146 -41.6849,7.3517 -47.9645,27.528 -4.3404,13.9458 -0.6157,28.4987 10.0147,39.1291 10.3661,10.3661 25.456,14.3384 39.8818,10.4987 z m -143.6491,-49.5415 c 14.9914,-1.097 22.1353,-1.9797 23.6626,-2.9237 1.3727,-0.8483 9.4309,-27.8164 8.6764,-29.0371 -0.7835,-1.2678 -14.4444,-6.3431 -25.5623,-9.4969 l -9.5303,-2.7034 -6.9592,2.6195 c -14.4198,5.4276 -20.4872,10.7199 -20.4705,17.8555 0.011,4.8473 3.4844,12.854 8.5964,19.8179 4.0495,5.5166 2.6028,5.2574 21.5869,3.8682 z"
             id="path8359"
             inkscape:connector-curvature="0" />
          <path
             style="fill:#6441a5;fill-opacity:1"
             d="m -344.5077,2974.536 c -4.1568,-1.1071 -5.0529,-1.9889 -11.75,-11.5608 -3.9875,-5.6992 -7.25,-10.6792 -7.25,-11.0667 0,-0.3874 2.8125,-1.2828 6.25,-1.9899 7.2353,-1.4881 10.3238,-2.8366 9.1074,-3.9762 -0.4716,-0.4418 -4.6498,-1.3013 -9.285,-1.9099 -12.0107,-1.5771 -14.3215,-3.0391 -21.7553,-13.7645 l -6.3508,-9.1628 6.7668,-2.224 c 20.503,-6.7382 36.7969,-14.4673 52.1827,-24.7529 14.7218,-9.8418 30.7526,-24.0104 28.9697,-25.6045 -0.212,-0.1895 -4.1018,1.7978 -8.644,4.4163 -9.2413,5.3275 -21.244,9.4716 -31.7415,10.9592 -8.7102,1.2343 -17.2092,1.3112 -17.9193,0.1621 -0.2956,-0.4782 2.2581,-3.0657 5.6748,-5.75 29.2128,-22.9507 52.4415,-60.4622 60.4676,-97.6481 2.6544,-12.2979 2.4153,-40.5081 -0.4279,-50.4824 -1.1366,-3.9875 -1.6589,-7.25 -1.1607,-7.25 0.4982,0 3.0702,3.3154 5.7155,7.3676 9.4652,14.4992 14.2913,36.2552 12.1315,54.6886 -2.0956,17.8851 -7.1305,32.8325 -16.0536,47.6586 -2.7808,4.6205 -4.8548,8.9373 -4.6089,9.593 0.7505,2.0012 14.9029,-13.2016 21.6973,-23.3078 3.5127,-5.225 8.9911,-14.5486 12.174,-20.719 4.9097,-9.5179 5.8795,-10.851 6.3963,-8.7919 0.9752,3.8855 -0.169,37.7143 -1.3872,41.0109 -0.6097,1.65 -2.5213,7.275 -4.2481,12.5 -5.7352,17.3547 -15.5157,33.6812 -28.9548,48.334 -8.1287,8.8628 -25.0297,21.457 -35.2651,26.2788 -4.5163,2.1276 -4.3229,3.9868 0.3774,3.629 12.0741,-0.919 41.4433,-15.2921 58.1406,-28.4535 2.0621,-1.6255 4.2433,-2.7908 4.847,-2.5895 1.7885,0.5961 -11.4988,25.4766 -18.8524,35.3012 -14.0089,18.7161 -36.6309,39.6306 -51.3549,47.4784 -6.1764,3.292 -7.1906,3.4108 -13.8891,1.6267 z m -286.2652,-114.8551 c -6.1479,-12.1902 -8.2396,-24.4842 -8.2093,-48.25 0.022,-17.0616 0.3621,-21.5427 2.3166,-30.5 4.5773,-20.9775 8.6581,-32.9584 16.8146,-49.3669 30.6634,-61.6854 94.3169,-100.4129 159.8053,-97.2272 14.1545,0.6886 30.8522,3.4451 37.3729,6.1696 l 3.5326,1.476 -6.1114,3.6153 c -12.7749,7.5573 -25.2564,19.7206 -30.3573,29.5832 -1.0667,2.0625 -2.5918,3.75 -3.3891,3.75 -0.7974,0 -11.222,-2.941 -23.1658,-6.5356 -33.3711,-10.0432 -33.4708,-10.0635 -39.1165,-7.9452 -9.165,3.4388 -15.8873,7.3619 -19.5374,11.4021 -3.0653,3.393 -3.69,4.823 -3.69,8.4472 0,5.1178 5.1056,16.1068 10.2465,22.0539 l 3.3138,3.8335 25.9698,-1.1917 c 34.1164,-1.5656 31.9082,-1.1213 35.6285,-7.1675 1.691,-2.7483 3.3049,-4.7666 3.5863,-4.4851 0.2815,0.2815 -0.036,2.6665 -0.7049,5.3001 -1.7834,7.0184 -1.5841,28.4912 0.2995,32.2671 0.8241,1.6518 1.1973,3.172 0.8294,3.378 -0.3679,0.2061 -4.4939,1.6321 -9.1689,3.1688 -18.1995,5.9826 -33.252,14.7284 -45.352,26.3504 -12.893,12.3837 -19.9011,24.7152 -25.1124,44.1883 -1.3532,5.0566 -2.5898,9.309 -2.748,9.4498 -0.1582,0.1407 -7.0488,-4.7549 -15.3124,-10.8791 -39.5285,-29.2948 -45.5582,-33.6346 -46.7234,-33.6282 -2.9993,0.016 -10.5673,15.2174 -13.6877,27.4932 -1.1184,4.4 -2.5127,11.375 -3.0984,15.5 -1.2062,8.4951 -1.4805,35.3842 -0.4322,42.3745 0.3815,2.544 0.5055,4.6255 0.2756,4.6255 -0.2298,0 -2.0633,-3.2625 -4.0743,-7.25 z"
             id="path8361"
             inkscape:connector-curvature="0" />
          <path
             style="fill:#6441a5;fill-opacity:1"
             d="m -312.6288,2939.6809 c -10.9074,-15.5036 -11.1262,-15.836 -10.7021,-16.2601 0.2172,-0.2173 4.4288,-1.8181 9.3591,-3.5575 14.4169,-5.0861 31.307,-14.3533 46.3703,-25.4423 3.4394,-2.5319 6.6843,-4.4599 7.2109,-4.2844 1.2515,0.4171 -7.9088,19.1085 -13.2705,27.0779 -9.0546,13.4587 -26.9244,32.7164 -30.3585,32.7164 -0.7689,0 -4.643,-4.6125 -8.6092,-10.25 z m -17.0705,-24.5 c -1.8577,-2.1651 -7.8084,-10.9554 -7.8084,-11.5344 0,-0.2332 5.7375,-4.7019 12.75,-9.9303 13.459,-10.035 27.25,-22.4456 27.25,-24.5226 0,-0.7167 -3.8879,0.8297 -9.25,3.6793 -5.0875,2.7037 -12.175,5.8497 -15.75,6.9911 -7.0051,2.2365 -20.7865,3.9237 -26.5521,3.2506 l -3.5607,-0.4157 12.3883,-12.634 c 22.5232,-22.9699 36.1775,-44.4573 45.3397,-71.3501 5.7363,-16.8371 6.8928,-24.2664 6.8157,-43.7839 -0.057,-14.5384 -0.4188,-18.727 -2.1357,-24.75 -1.1366,-3.9875 -1.6589,-7.25 -1.1607,-7.25 0.4982,0 3.0702,3.3154 5.7155,7.3676 9.4652,14.4992 14.2913,36.2552 12.1315,54.6886 -2.0956,17.8851 -7.1305,32.8325 -16.0536,47.6586 -2.7808,4.6205 -4.8548,8.9373 -4.6089,9.593 0.7505,2.0012 14.9029,-13.2016 21.6973,-23.3078 3.5127,-5.225 8.9911,-14.5486 12.174,-20.719 4.9097,-9.5179 5.8795,-10.851 6.3963,-8.7919 0.9752,3.8855 -0.169,37.7143 -1.3872,41.0109 -0.6097,1.65 -2.5213,7.275 -4.2481,12.5 -10.1562,30.7325 -32.7929,57.604 -59.8236,71.0154 -6.9764,3.4613 -8.2753,3.6167 -10.3193,1.2346 z m -300.5288,-54.5 c -6.6982,-13.7195 -10.4132,-41.292 -8.32,-61.75 5.3449,-52.2403 29.8748,-97.4869 69.5247,-128.2416 23.818,-18.4747 51.2357,-30.0382 78.8168,-33.2414 l 5.8011,-0.6737 -4.3924,5.8283 c -2.4157,3.2056 -6.3493,9.2034 -8.7412,13.3284 -2.392,4.125 -4.4493,7.6484 -4.572,7.8298 -0.1226,0.1814 -3.5668,-0.2321 -7.6538,-0.9188 -7.1986,-1.2096 -7.6466,-1.1632 -14.3368,1.4842 -8.9858,3.5558 -16.9784,8.8554 -19.4373,12.8883 -3.8378,6.2942 -1.5512,16.1044 6.3438,27.2165 l 4.2628,6 8.9624,0.5 8.9623,0.5 0.3012,4.1209 0.3012,4.1209 13.6988,4.5132 c 15.7709,5.1959 34.0005,13.379 32.625,14.645 -0.5094,0.4689 -4.0762,1.8768 -7.9262,3.1287 -16.9865,5.5236 -32.3045,14.4824 -46.7732,27.3554 -4.708,4.1887 -8.8305,7.6159 -9.1611,7.6159 -0.3307,0 -10.8307,-7.5583 -23.3335,-16.7961 -12.5027,-9.2378 -23.2815,-17.1312 -23.9528,-17.5409 -5.2339,-3.1935 -29.3388,23.8197 -38.4876,43.1312 -7.9611,16.8043 -11.3515,36.9891 -10.5655,62.9018 0.272,8.9672 0.4121,16.304 0.3114,16.304 -0.1008,0 -1.1169,-1.9125 -2.2581,-4.25 z"
             id="path8363"
             inkscape:connector-curvature="0" />
          <path
             style="fill:#6441a5;fill-opacity:1"
             d="m -268.64859,2904.9751 c -1.5467,-2.1799 -6.91861,-4.22 -3.27391,-7.3829 6.9965,-6.0718 14.45268,-11.0504 11.10938,-4.4274 -3.6467,7.2242 -5.75457,14.7432 -7.83547,11.8103 z m -20.62661,-28.3558 c -3.5879,-5.2666 -4.1651,-6.7754 -3.625,-9.4762 0.609,-3.0445 0.4861,-3.2122 -2.3538,-3.2122 -2.6976,0 -3.7601,-1.1229 -10.6582,-11.2646 l -10.65812,-11.1148 21.62664,-44.2342 c 5.54969,-11.3511 8.44836,-39.4182 3.44899,-72.7369 l -0.38307,-2.553 2.0709,2 c 6.07876,5.8707 13.77941,23.3566 16.14691,37.3506 1.7692,10.4577 1.3256,30.0156 -1.8453,41.5772 -3.0012,10.943 -7.39625,20.3529 -14.02485,30.31 -5.1757,7.7747 -5.18387,10.5691 -3.45006,8.5469 1.08992,-1.2711 12.77767,-11.3091 20.17067,-22.5141 7.2396,-10.9723 16.94732,-28.8219 16.99512,-31.3965 0.026,-1.4071 0.74259,-1.5117 1.65419,0.056 1.3948,2.3985 0.18552,38.3112 -0.19909,39.6793 -0.13739,0.8602 -0.96743,5.6172 -1.70293,8.6422 -1.9676,8.0918 -7.6421,21.429 -12.8507,30.2037 -4.3698,7.3616 -12.654,17.8227 -14.0741,17.7725 -0.3698,-0.013 -3.9411,-4.1909 -6.2882,-7.6361 z m -340.7342,-16.6913 c -1.0318,-1.6694 -5.277,-17.069 -6.6153,-23.9971 -1.6791,-8.693 -1.6936,-38.5101 -0.023,-48 6.5798,-37.3818 21.6244,-69.2691 44.7046,-94.7525 9.8294,-10.8529 31.3786,-28.6379 32.88,-27.1365 0.2441,0.2441 -0.4284,3.7661 -1.4945,7.8267 -3.2674,12.4453 -4.9218,23.9177 -5.6101,38.9027 l -0.6586,14.3404 -9.2113,6.8931 c -20.3354,15.2178 -37.9326,37.9766 -46.0609,59.5716 -4.9017,13.0228 -6.7966,26.1814 -6.8551,47.604 -0.03,10.8623 -0.1398,19.7498 -0.2449,19.75 -0.105,3e-4 -0.4699,-0.4508 -0.8107,-1.0024 z m 129.1518,-124.9143 c -10.8413,-8.085 -12.4635,-9.6303 -10.3783,-9.8869 3.5242,-0.4335 16.8404,3.1443 27.1068,7.2832 11.8233,4.7665 14.5234,6.2342 12.6214,6.8607 -0.825,0.2717 -4.875,1.5811 -9,2.9099 l -7.5,2.4159 z"
             id="path8365"
             inkscape:connector-curvature="0"
             sodipodi:nodetypes="ccscccsscsscssssssccccscscscsssscssccccssscccss" />
        </g>
      </g>
      <g
         id="g2993"
         inkscape:label="Twitch_IntegrationGuidelines"
         transform="matrix(0.88677385,0,0,-0.88677385,79.623529,1213.8624)">
        <g
           id="g2995"
           transform="matrix(9.5324427,0,0,9.5324427,1348.9493,1188.2344)">
          <path
             d="m 0,0 -13.652,-13.651 -21.445,0 -11.699,-11.697 0,11.697 -17.548,0 0,56.544 L 0,42.893 0,0 Z m -72.146,50.692 -3.899,-15.599 0,-70.19 17.55,0 0,-9.751 9.746,0 9.752,9.751 15.596,0 31.196,31.192 0,54.597 -79.941,0 z"
             style="fill:#6441a5;fill-opacity:1;fill-rule:evenodd;stroke:none"
             id="path2997"
             inkscape:connector-curvature="0" />
        </g>
        <path
           d="m 940.03601,1225.3756 74.34349,0 0,223.0687 -74.34349,0 0,-223.0687 z m 204.43279,0 74.3435,0 0,223.0687 -74.3435,0 0,-223.0687 z"
           style="fill:#6441a5;fill-opacity:1;fill-rule:evenodd;stroke:none"
           id="path2999"
           inkscape:connector-curvature="0" />
      </g>
    </g>
  </g>
</svg>
